<?xml version="1.0" encoding="UTF-8"?>
<svg id="Layer_0_xA0_Image" xmlns="http://www.w3.org/2000/svg" version="1.1" viewBox="0 0 477.15 123.2">
  <!-- Generator: Adobe Illustrator 30.5.1, SVG Export Plug-In . SVG Version: 2.1.4 Build 3)  -->
  <path d="M237.36,63.37c.19-17.18-.26-34.39,0-51.58.03-2.38.19-4.79.2-7.2,0-1.05-.55-2.44,1.15-2.43,38.83-.06,77.65.1,116.48.02.9,0,1.97-.45,2.77.27l-.26,60.56c-.28.33-.68.33-1.07.37-6.53.58-13.92-.46-20.54,0-6.99-.54-15.13-.75-19.78,5.41-6.25,8.28-1.85,19.78,8.2,22.01.8.18,3.31.21,3.54.96l-.1,30.43-.63.63-59.71.22c-.46-.35-.77-.83-.73-1.43.43-8.92-.54-18.33,0-27.2.04-.58.22-2.39.41-2.83.26-.63,3.24-.77,4.06-.98,13.38-3.3,13.8-22.42.58-26.6-2.34-.74-5.9-.64-8.36-.62-7.86.07-15.73-.12-23.59-.02-.85.01-1.65.29-2.6,0h0Z"/>
  <path d="M105.03,63.16c-.24.12-.51.18-.78.21-4.74.44-9.5,0-14.21,0-4.22,0-8.43.25-12.6.18-1.07-.02-2.15.05-3.22-.02-.51-.17-.25-1.69-.3-2.22-1.08-11.23-14.07-16.7-22.76-9.45-4.52,3.77-4.93,8.79-4.96,14.3l.21,9.88c.06.23.22.26.42.3,1.22.23,3.48-.05,4.87,0,18.16.55,36.9-.89,54.89.19.8.05,2.71-.22,3.21.35l5.02,19.14c2.24,8.56,3.85,17.2,5.88,25.81.11.54-.09.94-.54,1.24-5.36-.19-10.74-.04-16.11-.08-27.45-.21-54.97-.34-82.44-.2-6.39.03-14.06.76-20.34.2-1.59-.14-1.3-1.56-1.15-2.96.33-2.99,1.41-7.3,2.05-10.37,5.16-24.73,13.23-54.01,24.66-76.5,7.44-14.64,22.43-37.5,41.92-28.41,15.19,7.08,26.85,32.27,32.65,47.27,1.04,2.69,3.03,7.29,3.56,9.93.08.41.15.83.06,1.24v-.03Z"/>
  <path d="M461.43,61.86c-.24.12-.51.18-.78.21-4.8.45-9.62-.02-14.39,0-5.21.01-10.41.36-15.64.16-.52-.17-.24-1.88-.3-2.45-1.09-11.73-14.74-16.9-23.22-9.01-5,4.65-4.34,10.69-4.31,16.92,0,2.04-.28,5.27.04,7.14.03.15.07.47.25.51,1.67.03,3.35-.07,5.02-.01,18.19.56,37.05-.96,55.07.19,1.03.06,2.85-.45,3.21.77,3.85,14.73,7.73,29.52,10.43,44.52.14.8.81,1.55-.23,2.26-5.3-.19-10.62-.04-15.93-.08-27.45-.21-54.96-.22-82.44-.2-6.47-.14-14.14.84-20.52.2-1.46-.14-1.27-1.42-1.14-2.66.34-3.28,1.5-8.01,2.19-11.37,2.8-13.61,6.3-27.12,10.34-40.38,5.95-19.5,16.4-49.3,32.18-62.39,27.37-22.68,48.34,22.66,56.2,43.17,1.09,2.85,3.45,8.47,3.96,11.22.08.43.08.88.02,1.31v-.03Z"/>
  <path d="M175.41,2.21c24.03-.06,42.84,31.02,52.03,49.93,1.25,2.57,2.26,5.27,3.5,7.84.79,1.65,1.51,1.72.76,3.92-.95,2.75-2.94,6.72-4.25,9.43-8.38,17.46-23.8,42.56-43.4,48.4-23.62,7.04-42.08-14.95-52.73-32.87-5.01-8.43-9.36-17.39-12.95-26.49-.05-.9.72-1.49,1.05-2.21,10.16-22.07,27.37-57.88,56-57.96h-.01ZM197.02,62.13c-4.15-1.49-8.06-3.67-11.56-6.35s-6.36-5.93-8.73-9.81c-.16-.27-1.09-1.85-1.2-1.85-1.17.81-1.6,2.17-2.35,3.23-3.87,5.43-8.69,9.56-14.72,12.46-.73.35-5.09,1.95-5.16,2.22-.09.35.16.26.35.36.83.44,1.94.73,2.83,1.14,7.07,3.25,11.97,7.04,16.52,13.36.45.63,1.74,3.23,2.53,3.23.62,0,1.39-2.23,1.74-2.77,3.49-5.48,10.23-10.54,16.05-13.29,1.13-.54,2.52-1.1,3.72-1.41l-.02-.52h0Z"/>
</svg>