<?xml version="1.0" encoding="UTF-8"?>
<svg id="Layer_1" xmlns="http://www.w3.org/2000/svg" version="1.1" viewBox="0 0 505.93 81.21">
  <!-- Generator: Adobe Illustrator 30.5.1, SVG Export Plug-In . SVG Version: 2.1.4 Build 3)  -->
  <defs>
    <style>
      .st0 {
        fill: #fff;
      }
    </style>
  </defs>
  <path class="st0" d="M372.05,30.7c.23,1.83-1.84,4.19-.09,5.79.77-.6,1.62-.58,2.09-.1.75.76.23,1.42-.14,2.11-.58,1.08-.35,2.48-.55,3.61l.03,1.73-.2,3.82-.21,3.35-.08,6.01c-.24-.23-.41-.61-.41-.98l-.05-4.8-.23-4.32-.56-5.33c-.5,1.01-.66,1.78-1.55,2.27-2.12,1.16-1,3.82-3.73,2.78.52,1.16.24,1.92.18,2.97l-.17,2.75c-.1,1.6-.07,3.04-.1,4.65l-.1,5.41c-.05.15-.28.31-.41.29l-.09-9.77-.26-2.36c-.11-1.03.03-1.74-.03-2.69l-.16-2.65c-.08-1.34-.25-2.86-1.08-3.87l-.83-.31c-.08-.03-1.14-2.33.67-4.04.69-.66.69-1.97.36-2.79-.65-1.61-.66-3.13-.33-4.81.36-1.86-.51-3.91.12-5.4.08-.19.27-.45.16-.65-.14-.24-.57-.22-.71.06-.62,1.28-.38,2.53-.52,3.87l-.28,2.61-.22,2.37c-.14,1.52-.23,2.64.04,4.17.12.66-.55,1.78-1.02,2.24-.81.82-2.09,1.42-2.43,2.6l-.22,3.88-.26,5.23-.24,8.43-.24,3.92-.23-6.39-.19-6.8-.2-3.59c-.07-1.23.14-2.37-.3-3.55-.89.44-2.47.67-2.89,1.77-.28.74-.22,1.93-.3,2.75l-.52,5.29-.13,3.57-.31,3.83-.31-5.27-.27-5.29c-.05-.91.25-2.17-.42-2.93-.62-.69-.97-1.39-.53-2.31.57-1.19,0-2.44-.16-3.66l-.3-2.35c-.11-.87.06-1.68-.49-2.48,2.08-3.46-1.27-5.39.69-8.79.76-1.33,1.55-2.93,1.1-3.82-.4-.79-2.21,1.21-4.77.27.71-1.95,2.07-3.24,3.34-4.67.46-.51.9-1.05,1.68-1.27.14-1.25.2-2.78,0-4.1-.08-.55-.42-1.11-.19-1.71-1.18-1.75-.87-4.53,1.02-5.7.62-.38,1.33-.3,1.39-1.35.01-.22.42-.55.67-.57.32-.03.53.19.77.49l1.67,2.06c1.58.93,2.41,4.08,1.11,6.14l-.91,1.44c-.35.55-.24,1.34-.39,2.02l2.38,1.06-.37.6c-.1.16.39.58.32.76-.43.82-.4,1.94-.45,2.87l-.27,5.02c-.64,3.32-.75,7.43.99,10.11.46-.1,1.32-.36,1.45-.77l-.03-4.54-.24-3.32-.54-3.29c-.08-.5-.91-.79-1.33-1.1.54-1.56,1.82-2.67,3.2-3.42.98-.53.94-1.04,1.34-1.93s2.01-1.66,2.89-1.92c.66-.13.75.99,1.05,1.24l2.61,2.19.72,1.24c.59-.16,1.05-.72,1.27-1.24.42-.99,1.1-1.02,1.93-1.27,1.25-.39,2.33-.61,3.65-.68l2.01-1.77c.67-.59,1.01-1.48,1.41-2.19.83-1.48,3.49-2.56,3.81-1.39s-.98,2.23-1.05,3.36c-.05.78.77,1.78.29,2.76.85.62.96,1.39.49,2.2.5.98.37,1.96-.31,2.72-.6.67-.45,1.48-.64,2.29l-.89,3.84-.03,6.93c2.48,0,2.37-1.57,3.19-1.6.4-.01.62.91.37,1.39-.65,1.22-1.91,2.25-2.22,3.68l-.23,4.57-.24,6.7-.25,10.07-.13,6.46c0,.09-.14.15-.19.13l-.09-13.35-.09-1.85-.23-6.48-.28-4.27c-.82.88-1.38,2-1.49,3.18l-.22,2.43-.18,8.47-.15,11.14c0,.16.03.41-.06.46-.08.04-.36-.21-.36-.3v-8.56s-.32-3.62-.32-3.62l.02-4.53-.26-4.22c-.84.72-1.22,1.1-2.15.83.26-2.03-.15-3.93-.4-5.94-.43-3.46-2.45-5.9-2.12-7.84l.57-3.27,1.11-2.46c.59-1.3.03-2.73-.4-4.05l-1.05-3.22c-1.27.33-2.49,1.26-3.1,2.49l-.21,1.87c-.74,1.13-.82,2.09-.67,3.32l.37,2.89ZM355.7,8.65l-2.47.48c-.28-.16-.22-.8-.22-1.29-.61.62-.5,1.4-.11,2.22.92-.9,2.62-.02,2.79-1.41ZM355.84,14.23c-.57-.15-1.18-.17-1.68.05.19.69,1.82.94,1.98.68.12-.2,0-.65-.3-.73ZM352.5,20.46c.1.41.3.36.4.39.11.02.27-.43.15-.53l-1.73-.97c.26.65.59.83.25,1.55l.93-.44ZM359.18,25.63c.15-1.63.17-2.8.01-4.07-.49,1.49-.55,2.81-.01,4.07ZM358.24,37.15c.12-.45-.29-.73-.35-.87s.23-.4.33-.5c-.26-.63-.82-.27-1.33-.34l-2.54-.35c.45.62.66.9.94,1.68l.35-.9c.83.62,1.7,1.19,2.6,1.28ZM354.5,40.15l1.15-.97c-.27-.27-.4-.51-.46-.72s.19-.54.38-.53c.09.14.21.33.28.37.31.17.46-.46.54-1.41l-2.38.3c.7.5-.19,1.01-.17,1.17-.56.42-.99.22-1.44.2-.18.26-.04.51.05.51h.56c.9.42,1.32,2.72,1.69,1.78.05-.12-.16-.52-.19-.69Z"/>
  <path class="st0" d="M296,32.92c0,1.66.28,3.02-.28,4.51-.29.78.65,1.52.78,2.16.2.94-.8,1.91-1.54,2.29-1.11.58-1.59,1.41-2.42,2.2-.51.49-1.34.45-1.36,1.61,0,.31-.79.4-1.09.26-1.1-.51-.27-1.7-1.19-4.72l-.9-2.96c-.21-.71-1.19-1.37-.88-2.25l1.24-3.54c.58-1.67-.09-3.43-.08-5.16.02-1.44.67-2.95-.33-4.22.38-.54.53-.96.51-1.57l-3.9,1.38c.2,1.3.03,2.27-.17,3.47l.47,2.09c-.5,2.77.1,4.7-.62,6.35-1.1,2.52,2.01,3.1,2.06,4.09.02.5-.52.63-.86.96l-1.31,1.26c-.67,1.54-.4,3.21-.49,4.86l-.21,3.82-.19,3.35-.26,2.39-.14,6.73-.22-4.96-.24-6.59-.16-3.32c-.08-1.56,0-2.97-.32-4.35l-1.62,1.93c-.5.6-1.16,1.32-2.09.84-.3-.3-.31-1.2-.97-1.53l-.23,3.1-.24,5.98-.2,9.15-.1,6.78c0,.1-.12.14-.15.13l-.2-10.66-.25-6.2-.17-5.62c-.04-1.23-.28-2.35-.12-3.65l-1.46-.89,1.36-3.91c.52-1.49.63-2.63.12-4.11-.3-.88.83-1.9.94-2.69l.68-4.68-1.21,1.26c-.01-1.59,2.64-3.53,1.48-4.61-1.01-.94-2.95-.39-4.58-1.24-.23-2.09,2.45-.7,5.78-4.43l1.22-.96c.78-.61,1.52-1.49,2.49-1.73,0,.81.52,1.05,1.08,1.41,1.05.67,1.2,2.16,1.14,3.51,1.1.11,2.06-.59,3.02-1.2l2.05-1.31c2.38-1.52,2.57-2.89,3.03-3.12,1.02-.49.24,3.29,2.63,5.83.45.47,1.01-.67,1.33-.77l2.03-.61,3.45-2.31,2.53-1.58c.61-.38,1.9-1.09,2.18-.11.08.49-.77,1.47-.3,2.07,1.39,1.78,3.51,1.65,3.73,3.6-.97.79-2.69.68-3.04,2-.31,1.2.04,2.29.33,3.39l.22,3.73c.03.55,1.31,1.36.72,2.1-1.19,1.5-1.78,3.2-1.04,5.15.57,1.52,2.67-.16,4.7.34.04,1.34-1.13,2.03-2.01,2.88l-2.05,1.99c-.58.56-.43,1.47-.48,2.18l-.26,3.86-.2,3.1-.2,3.12-.21,2.37c-.08.9.48,1.86,0,2.76-.79-1.44-.13-2.99-.2-4.3l-.17-2.99-.67-7.45-1.89,1.79-.13,5.53-.15,8.22-.12,5.79-.12,12.93c0,.17.03.41-.06.46-.08.04-.37-.2-.37-.29l-.02-7.82c0-.23.27-.74.19-.92-.48-1.12.17-3.52-.12-4.31s-.15-1.54-.2-2.26c-.15-2.38-.12-4.65-.02-6.99l-.25-3.14-.19-5.8c-.63-.5-2.25-1.03-2.02-2.18.28-1.36.9-2.72.07-4.21-.68.54-.45,1.5-.5,2.25l-.14,2.39c-.05.84-.28,1.56.14,2.5-.21.23-.41.03-.47-.09-.33-.64.08-5.54-1.24-8.54.45-.64.85-1.35.7-2.23-.2-1.15.08-2.24.17-3.35l.23-3.13.23-2.17.16-5.69c.02-.65-.28-.93-.76-1.22-.51-.32-1.12,0-1.64.33l-.67.43c-.22.14-.01.63.05.91.27,1.16-.61,2.1-.6,3.15v5.56ZM284.1,23.18c-.13-.36-.39-.91-.52-.83l-.54.32c-.82-.14-1.37-.55-2.35-.38.22.39.61.38,1.03.24-.11.38-.28.62-.45.88.79.24.95-.62,2.84-.23ZM302.74,38.05c-.41-.34-.71-.07-1.06.16-.16.11-.31,1.39-.11,1.55.8.61.2-1.13,1.16-1.7ZM280.15,39.41c.15.21.55.44.68.22l.66-1.09-1.87.72-.34-1.17c-1.26.94-2.95.2-3.29.6-.09.11-.04.51.11.58.02,0,.93-.48,2.78,1.01.39-.28.75-.8,1.26-.88Z"/>
  <path class="st0" d="M23.12,32.92c0,1.66.28,3.02-.28,4.51-.29.78.65,1.52.78,2.16.2.94-.8,1.91-1.54,2.29-1.11.58-1.59,1.41-2.42,2.2-.51.49-1.34.45-1.36,1.61,0,.31-.79.4-1.09.26-1.1-.51-.27-1.7-1.19-4.72l-.9-2.96c-.21-.71-1.17-1.36-.88-2.25.38-1.17.95-2.32,1.24-3.54.4-1.73-.09-3.43-.08-5.16.02-1.44.67-2.95-.33-4.22.38-.54.53-.96.51-1.57l-3.9,1.38c.2,1.3.03,2.27-.17,3.47l.47,2.09c-.5,2.77.1,4.7-.62,6.35-1.1,2.52,2.01,3.1,2.06,4.09.03.52-1.19,1.07-2.17,2.22-.67,1.54-.37,3.21-.49,4.86-.09,1.29-.35,2.5-.21,3.82.12,1.16-.07,2.23-.19,3.35l-.26,2.39-.14,6.73-.22-4.96-.24-6.59c-.04-1.09-.23-2.17-.16-3.32.08-1.57,0-2.97-.32-4.35l-1.62,1.94c-.49.58-1.19,1.33-2.08.82-.33-.24-.29-1.22-.98-1.51.1.98-.18,2.05-.23,3.09l-.24,5.99-.2,9.15-.1,6.78c0,.1-.12.14-.15.13l-.2-10.66-.25-6.2-.17-5.62c-.04-1.23-.28-2.35-.12-3.65l-1.46-.89,1.36-3.91c.52-1.49.63-2.63.12-4.11-.3-.88.83-1.9.94-2.69l.68-4.68-1.21,1.26c-.01-1.59,2.64-3.53,1.48-4.61-1.01-.94-2.95-.39-4.58-1.24-.23-2.09,2.45-.7,5.78-4.43l1.22-.96c.78-.61,1.53-1.5,2.49-1.72.01.8.52,1.05,1.08,1.41,1.05.67,1.2,2.16,1.14,3.51,1.1.11,2.09-.54,3.02-1.2,1.77-1.26,3.72-1.95,4.75-4.14.08-.16.24-.25.33-.29,1.02-.5.24,3.29,2.64,5.84.44.47,1.01-.68,1.34-.78l2.02-.6,3.45-2.31,2.53-1.58c.61-.38,1.89-1.12,2.16-.12.13.47-.69,1.57-.32,2.04,1.45,1.84,3.54,1.69,3.77,3.64-.98.78-2.69.68-3.04,2-.31,1.2.04,2.29.33,3.39l.22,3.73c.03.55,1.31,1.36.72,2.1-1.19,1.5-1.78,3.2-1.04,5.15.57,1.52,2.67-.16,4.7.34.04,1.34-1.13,2.03-2.01,2.88l-2.05,1.99c-.6.58-.6,3.92-.73,6.04-.07,1.03-.33,2.03-.2,3.1.2,1.6-.44,3.71-.41,5.48.01.91.48,1.86,0,2.76-.79-1.44-.03-3-.2-4.3-.15-1.09-.07-1.93-.17-2.99l-.67-7.45-1.89,1.79-.13,5.53-.15,8.22-.12,5.79-.13,13.39c-.14,0-.44-.23-.44-.44v-7.67c0-.23.28-.74.2-.92-.48-1.12.18-3.5-.12-4.32-.26-.72-.15-1.54-.2-2.24-.15-2.38-.12-4.65-.02-6.99l-.25-3.14-.19-5.8c-.63-.5-2.25-1.03-2.02-2.18.28-1.36.9-2.72.07-4.21-.76.55-.41,2.56-.64,4.64-.09.83-.28,1.56.14,2.5-.21.22-.41.03-.47-.09-.33-.64.07-5.54-1.24-8.54.45-.64.85-1.35.7-2.23-.17-.95.18-4.42.4-6.47l.23-2.17.16-5.69c.02-.65-.28-.93-.76-1.22-.58-.36-1.89.32-2.31.75-.19.2-.01.63.05.91.27,1.16-.61,2.1-.6,3.15v5.56ZM11.22,23.18c-.12-.35-.29-.73-.51-.83-.14-.06-.37.35-.55.32-.82-.14-1.37-.55-2.35-.38.22.39.61.38,1.03.24-.11.38-.28.62-.45.88.79.24.95-.62,2.84-.23ZM29.86,38.05c-.41-.34-.71-.07-1.06.16-.16.11-.31,1.39-.11,1.55.8.61.2-1.13,1.16-1.7ZM7.27,39.41c.15.2.55.44.69.21.24-.41.46-.63.66-1.08l-1.87.72-.34-1.17c-1.26.94-2.94.19-3.29.6-.09.11-.04.51.11.58.01,0,.93-.47,2.78,1.01.39-.28.76-.81,1.26-.87Z"/>
  <path class="st0" d="M226.55,41.46l-.19,2.88-.17,6.8-.17,10.18-.17,3.11c-.28,0-.5-.29-.53-.44.34-.69.1-1.33.09-2l-.16-6.31-.26-7.38c-.03-.94,0-1.75-.06-2.79l-.23-3.62c-.04-.66-.1-1.25-.71-1.92l2.74-.97c.3-1.95-.51-3.87.29-5.93,1.07-2.73-.11-5.32,1.19-8.58-.46-.57-1.15-.1-1.64-.15-1.18-.12-2.09-.87-3.12-1.33.1-.34.26-.7.53-.86,1.79-1.06,3.16-2.39,4.45-3.97.49-.6,1.24-.79,1.01-1.93-.11-.57-.02-1.53.46-1.93.38-.31,1.24-.81,1.85-.58.96,2,2.33,3.69,3.83,5.29l1.05,1.12,1.61,2.1c-1.41.44-1.63,1.13-1.69,2.19l-.22,3.85-.21,2.64c-.2,2.45-.18,4.7-.2,7.3-.84-1.01.25-3.03-.68-3.45-.31,1.74-.46,3.36-.17,5.13,1.53-.67,2.69-1.52,3.63-2.59.67-.76.14-1.63.18-2.4l.2-4.74c.04-1.04.34-1.97-.14-2.99s.03-1.96.35-2.85c.18-.51-.04-1.23.47-1.82.32-.37.75-1.25.81-1.75l.73-5.79c1.88.82,2.11,2.71,2.76,4.26.4.95,1.17,1.57,1.37,2.74l1.73,1.93c-.85,2.29-.43,4.28-1.62,6.8-.29.61.2,1.18.41,1.7l-.19,2.32,2.04,4.27c.59.23,1.36-.5,1.66-1.02l1.06-.46.13-9.19c.02-1.11,1.08-5.3-.34-6.18-.48-.3-1.44.52-2.05-.09-.18-.18-.22-.86.1-.97,1.19-.42,1.97-1.19,2.91-1.92.65-.52,1.3-.86,1.64-1.75l1.98-5.35c.07-.18-.33-.72-.23-.87.15-.2.55-.37.83-.42.7-.11.37,1.48,1.04,3.09-.18,2.33.38,4.29,2.14,5.86l1.73,1.98c-.73,1.08-.79,2.39-.79,3.66v2.92c0,3.16-1.51,4.25-1.13,6.49.19,1.1-.25,2.57-1.35,3.17-.84.46-2.36.45-2.91,1.37l-.23,2.86-.17,4.66-.26,2.86-.16,6.58c-.01.58.27,1.18-.42,1.48l-.12-4.5-.19-6.55-.2-3.36c-.05-.89.11-1.77-.28-2.61-.42,0-1.09.46-1.13.9l-.21,2.66-.24,2.87-.24,4.79-.09,8.19c-.51-.6-.41-1.39-.44-2.19l-.16-3.57-.22-6.58-.19-4.42c-1.5-.12-1.79,1.96-3.31,3.5-.59.59-.8,1.29-.67,2.17l-2.25-.02c1.07-3.47-1.95-6.38-1.85-4.97.07,1.02-.16,1.89-.18,2.88l-.11,4.75-.23,4.08-.32,2.89-.16-6.46c-.02-.88-.12-1.76-.19-2.66l-.2-2.86-.25-3.35c-.08-1.1.06-2.09-.64-3.12l-1.86,1.89c.3,1.33-.12,2.57-.15,3.82l-.18,8.2-.47,11-.19-6.16-.19-8.47-.21-3.11c-.09-1.37.12-2.73-.65-4.03l-1.37,1.99c-.32.46-.46.87-.99,1.1-2.07.89-1.65-2.54-3.08-3.72l-3.01-1.3ZM258.87,26.86c.18-.91.14-1.71-.42-2.56-.41.91-.45,1.92.42,2.56ZM252.71,25.46h.84c.24-.01.22-.35,0-.35-.19,0-.35-.03-.76.18-.2-.33.11-.63.68-.38-.16-.42-.68-.35-1.02-.18-.2.1-.92,1.03-.45,2.12l.58,1.33c.12.29.75-.19.63-.51-.1-.28-.29-.31-.68-.51-.28-.15.19-.84.65-.75-.12-.49-.28-.64-.47-.94ZM235.29,31.9c.4-1.08-.09-1.68-.09-2.4,0-1.19.05-2.19-.35-3.42-1.51,2.15-.62,3.56.44,5.82Z"/>
  <path class="st0" d="M87.03,76.25c-.04,1.36-.28,2.49.1,3.75.14.47-.02,1.03-.46,1.2l-.07-4.82c-.01-.74.01-1.41-.02-2.14l-.15-3.64-.16-10.84-.13-4.46c-.68.62-1.49.65-2.18.38.23-2.45,3.26-3.69,3.23-4.85l-.08-2.93c-.03-1.03-.07-1.86-.23-2.92-.09-.62.26-1.78-.38-2.26-1.53.12-.98,1.96-1.81,2.43-.5.29-2.41.13-3.24-1.04l-.29,2.81c-.11,1.07-.11,2.05-.24,3.12-.18,1.5.22,2.97-.48,4.33.11-1.28-.12-2.4-.25-3.61l-.74-7.2c-.1-.99-.63-1.56-1.78-1.61l1.17-2.38c.56-1.14,1.67-2.5,1.5-3.86-.19-1.61-.3-3,.03-4.61s-.58-3.25-1.39-4.5.31-2.16.52-3.28l.62-3.24c.11-.6-.26-1.44-.27-2.07-1.27-.65-1.49-2.22-.64-3.37l-2.23-.07c-.25,0-.26-.71-.15-.99.28-.67,1.24-.38,1.96-1.36.75-1.04,1.43-2.85,2.72-3.41.94-.41,2.02-.26,3.05-.83.73-.4,1.5-1.06,2.36-1.2.67-.1,1.54.47,2.28.04,1.1-.65,1.57-2.34,2.75-2.19,1.85.24.04,1.44.53,4.33-.59-.31-.39-.79-.37-1.34l-2.95,3.02-.38.66c-.1.17-.57,0-.94-.09.27,3.44-1.04,6.72-.23,10.17,3.92-1.1,5.58-3.88,8.39-5.16,1.47-.67,2.1-3.05,2.77-2.05.55.82-.67,2.57-.8,4.53.22.33.76.6.74,1.03-.03.62-.23.99-.59,1.54-.86,1.32,1.32,3.99.23,6.53.97.69,1.01,1.83.52,2.88.15,1.29-.19,2.49-.2,3.76l-.05,4.81-.73,3.82c.57-.02.77-.24,1.23-.48.25.84,1.19.92,1.78,1.15.38,1.02-.57,2.24-1.38,2.83-1.95,1.42-2.69,1.21-2.93,4.47l-.27,3.54-.3,4.79c-.08,1.18.18,2.34-.42,3.38l-.1-4.09c-.03-1.15-.13-2.2-.24-3.37l-.22-2.39c-.08-.85-.07-1.68-.46-2.36-1.04.04-1.68.61-2.37,1.19-1.23,1.02-2.66,1.51-4.25,2.13.31,1.92.15,3.81-.13,5.74l-.38,2.67-.18,6.82-.21,7.12ZM86.51,19.37l-.98-.59c-.3.03-.36.43-.2.82.17.41.14.41.67.44.33.02.83-.12.52-.67ZM91.64,41.79c-.6-.68-.11-1.17-.06-1.87l.2-2.92c.32-.92.61-1.77-.09-2.61-.1,1,.11,1.7-.49,2.39.21-3.2-.85-5.87.33-8.39.44-.93.05-1.84-.41-2.66l-.31-1.84c-.67-.49-1.8-1.13-2.64-.74-.7.32-.62,1.57-.59,2.25.15,3.01-.04,5.75-.71,8.64-.26,1.1-.08,2.19.44,3.15l1.76.62c.34.12.39.63.43.89.05.32-.34.53-.49.78-.57,1-.6,4.05-.72,6.07-.09,1.4-.45,2.73-.1,4.09l2.34-3.09c1.49-1.96-.26-3.29,1.11-4.75ZM82.59,39.68c-.48-.25-.74.02-.85,0-.07-.01-.09-.24-.18-.38-.26-.42-.66-.04-.92.1-.29.16-.33.69.09.78.68.14,1.33-.32,1.87-.5ZM84.23,42.48c.14-.25.88-.76.55-.96-.37-.22-.69-.49-.92-.51-.27-.03-.67.15-.87.41.67.65.37,1.33.21,2.15.71-.04.72-.55,1.03-1.09Z"/>
  <path class="st0" d="M412.05,45.88c-.3-.12-.56-.12-.72-.02-.12.08-.28.37-.25.61.13,1.04-.13,1.92-.16,2.91l-.18,5.58-.16,6.35c-.18-.02-.41-.23-.42-.45l-.05-4.57-.26-4.08-.25-3.82-.22-3.07c-.07-1.03-.48-1.8-1.2-2.38l-2.26-1.8-.21,4.74-.24,10.52-.16,12.22c0,.1-.1.13-.13.13l-.21-7.3-.16-4.42-.08-2.83-.28-2.31v-5s-.18-2.95-.18-2.95c-.06-1.01.28-2.18-.43-3.06-.39.41-.44.7-.63.77-.25.11-.7.13-.86.01-.81-.59,1.1-2.33,1.16-6.16.02-1.01,1.01-2.28.71-3.29-.26-.89-.71-1.46-.61-2.51l.22-2.39.13-4.89c-.06-.11-.16-.19-.3-.2l-.21,4.99c-.07.16-.19.18-.25.18l-.07-5.09-.21-3.6c-.17-2.82,1.93-3.45,1.77-4.87-.11-1.07-2.54.36-2.98-.45-.29-.53-.14-.89.28-1.35,1.98-2.15,5.49-1.8,6.58-4.41.32-.76.63-1.02,1.3-1.43,1.03-.62,1.93-1.52,3.22-1.75l1.53-3.08c.27-.55,1.23-1.53,1.81-.95.5.49.17,1.85-.2,2.32-.76.93-.56,2.17-.65,3.24l-.21,2.68-.23,5.05c-.06,1.32-.46,2.55-.1,3.77,1.7-.95,3.49-1.16,5.33-1.26,1.07-.61.72-2.15,1.1-2.62.28-.34,1.64-.16,1.62-.03l-.13.7c-.1.52-.19,1.03-.26,1.58l-.24,1.74-.03,5.52c.47.28.89.71.64,1.29-.3.7-.08,1.47-.23,2.18l-.71,3.32c.83.6,1.92.32,2.72.45s.32,1.09.18,1.46c-.58,1.51-.35,3.03-.45,4.6l-.19,2.91-.12,6.19-.19,4.32c-.04.97.22,1.99-.4,2.89l-.12-7.21-.2-3.35c-.07-1.15-.18-2.22-.2-3.35l-.07-4.03c-.42-.18-.59.35-.78.55l-2.75,2.85-.79,6.38-.26,3.58-.29,3.86-.34-4.8-.23-2.64c-.13-1.51.12-2.95-.45-4.42l-3.46,2.84c.53.62,1.07,1.42.58,2.14-.24.35-.96.03-1.26,0-.22.3-.33,1.02-.99.76ZM412.77,8.51l.24-.51-1.9-.09c-.27-.01-.46.11-.5.33-.02.11-.2.16-.04.43.92-.59,1.99.29,2.2-.16ZM415.2,29.66c-2.51-4.08.67-6.23.12-7.96-.38-1.21-3.59.2-4.09-1.93,1.22-.09,1.88-.85,2.73-1.59.34-.29.79-.46.74-1.17l-.27-3.82-.19-5.31c-1.01.71-1.32,1.71-1.16,2.86l-1.17,3.65c0,1.63.48,3.11-.63,4.55-.47.6-.13,1.67.07,2.36.81,2.76.42,5.41.06,8.22v4.88c.01.91.75,1.49,1.6,1.31.37-.08.82-.06.9.15l.26.66c.41.16.85-.24,1.05-.48.14-.17.94-4.8-.04-6.37ZM409.08,16.41l2.27-.19v-.36s-3.18.04-3.18.04l.3,1.02c.06.19-.38.4-.65.44-.15.37.27.63.51.87.17.17.51.23.82-.15-.05-.33-.47-1.39-.08-1.68ZM418.87,19.06c.61-.03.91-.05,1.41-.42.14.36.16.69.65.84.39-.83.4-1.69,0-2.51l-3.69.32c.55.38.97.59,1.29,1.08-.62.24-.8.69-.83,1.18-.02.34.33.98.82.73.09-.2-.15-1.19.36-1.21ZM409.98,22.16c.47-.94.48-2.12.02-2.24-.36-.09-.41.71-.93.71-.48,0-.32-.8-.84-1.11-.22-.13-.51-.12-.8.03l-1.1.58c-.23-.41-.26-.74-.8-1.03-.1.31-.22.64-.4.73-.24.12-.62.1-.97.08.36.96,1.69.63,2.65,1.36-.31.15-.55.45-.39.49,1.27.64,2.16.54,3.01-.55.19.39.2.65.54.95ZM420.94,23.06c.22-.26-.2-.76-.38-.75s-.39,0-.45.23l-.18.71c-.87-.87-2.26.4-3.26-1.02-.61.28-1.12,1.07-.86,1.5l.7-.42c.06-.04.18.39.21.62l1.14-.7c.93.59,2.36.65,3.07-.18ZM421.59,27.52l-.1-2.11c0-.18-.29-.41-.4-.44s-.38.24-.33.3l.37.4c-.18.64-.42,1.57.46,1.85ZM416.1,28.3l1.41-.5-2.35-1.13c.07,1.12.4,2.16,1.02,2.81.35.17.97-.78.6-1.17-.17.16-.5.31-.68,0ZM420.85,30.86c.5-.72.92-1.94.39-2.88-.25-.45-1.19-.1-1.37.33-.19-.47-.14-.76-.09-1.37-.52-.1-1.3.16-1.71.68-.27.36-.6,1-.22,1.65.3-.2.3-.5.4-.79l2.48,1.37c-.28.12-.69.31-.69.47s.35.4.8.54ZM407.4,30.66c.15.37.85.64.99.44.05-1.38-1.57-.56-3.26-1.18,0,.52.16.74.32,1.17.95.17,1.5.83,2.34,1.21-.18-.74-.78-.96-.39-1.64ZM408.35,33.42c.69-.23.86-.55,1.23-.79.13.13.33.44.46.47s.46-.36.36-.46c-.51-.55-1.22-.18-1.6.12l-.51-.39c-.13-.1-.36.18-.28.3.49.66-1.02,1.95-.4,3.87.21-1.11.81-1.86,1.56-2.62-.36-.1-.56-.09-.83-.48ZM418.28,33.38l-1.61-.04c-.07.27-.08.67.02.88.69.23,1.29-.27,1.59-.84Z"/>
  <path class="st0" d="M493.25,55.12l-.14,12.44-.34-2.68-.17-6.35-.27-7.83-.12-4.92-1.58-.15c-.06-.67-.13-1.27-.84-1.57.21,1.04-.15,1.92-.19,2.88l-.14,4.21-.18,9.19-.24,3.63c-.09,0-.15-.08-.15-.13l-.11-7.25-.31-8.98-.16-4.69-.26-2.41-.68-1.47c-.97-.55-2.32-.96-3.49-.95-.37-1.21.19-2.11.49-3.2l-.12-2.26-.4-.99c.21-3.16,2.45-3.75,1.59-5.8-.43-1.04-2.7-.73-2.85-1.98-.08-.7.48-.95,1.07-1.21,2.53-1.15,4.82-2.56,6.99-4.39-.42-.8-1.22-1.83-2.03-1.78l-2.37.15-3.28,1.21c-.54-2.35.14-4.61,1.58-6.53l2.43-3.26c.54-.72.89-1.07,1.55-1.66,1.02-.91,1.47-2.51,1.92-3.76.19-.52,1.19-.59,1.22-.25.13,1.43-2.34,5.33-.42,7.7.47.59,2.05.78,2.22,1.49.23.92.27,1.11.9,1.64,1.49,1.26,3.1,2.39,5.22,2.41.41.69,1.13.89,1.81.54l2.41-1.1c1.02,1.87.18,2.54.11,4.14l-.26,5.84c-.56-1.47-.09-2.95-.26-4.4h-.37s.02,5.94.02,5.94l.21,2.19.55,4.39c.81-.21,1.38-.39,2.07-.32.06,2.85-4.34,4.14-5.74,6.45-.79,1.31-.39,3.28-.49,4.75l-.22,3.39-.16,6.35-.23,12.82-.32-2.67-.17-8.27-.26-10.5-.12-4.54-3.84,1.79c-.76.35-.43,1.53-.47,2.1l-.28,3.9-.2,3.8-.19,2.9ZM496.57,30.32c.1-.46-.59-.52-.53.01.06,1.24.13,2.34-.42,3.33-.07-1.7.04-3.1-.39-4.64-.15-.53-.34-.85-.15-1.37.14-.4.61-.52.88-.91.51-.72-.85-2.2-.13-3.91-1.5-.93-2.52-2.14-3.48-3.72l-.42,3.16c-.22,1.63-.64,3.14-.43,4.83l.67,5.24c.19,1.52.74,3.31,1.89,3.76.24.09.55.59.9.49.32-.09.7-.25.89-.66,1.63-3.62.47-4.49.72-5.62ZM488.75,27.53c-.45-.72-1.21-.58-1.81-.61-.36-.02-.65.86-.35,1.12.58-.75,1.17-.64,2.16-.51Z"/>
  <path class="st0" d="M322.48,68.19l-.11-1.89-.13-7.32-.09-2.75-.11-10.22c-.4,0-1.24.07-1.49-.18l-.4-3.49c-.83,1.84-.12,3.91-.63,5.6l-.25-3.38c-.05-.68.32-1.42-.23-1.99-.61,2.51-.67,4.78-.88,7.19l-.22,2.49c-.63-1.2-.23-2.52-.43-3.87l-.94-6.43c-1.15.01-1.68.8-2.3,1.53-1.72,2.03-.05,3-.8,4.08-.17.25-.38.34-.69.19-.39-.19-.64-.52-.57-1.04l.43-3.43c.57-4.54,1.68-4.56,6.02-6.7.21-1.13-.05-2.26-.31-3.31-.9.22-1.74.96-2.54.86-1.62-.59.83-4.05-2.28-4.98l-2.41-.71c-.58-2.41,1.82-1.67,2.53-3.58.53-1.41,2.1-1.73,3.23-2.51l3.1-2.16c1.02-.72,1.88-1.42,2.81-2.23.51-.45,1.22-.75,1.07-1.62s-.02-1.95.72-2.69c1.87,1.66-.21,3.91,1.86,5.54.72.57,1.64,1.05,2.56.57.78-.41,1.24-1.2,1.38-2.19l1.92-1.65c.88,1.93.13,4.07-1.04,5.7l-1.32,1.82c-.21.29-.76.26-.85.49-.14.38-.17,1.01.18,1.34,1.03-.94,1.98-1.58,3.34-1.26-.08.73.42,1.16.62,1.76l1.19,3.69c-.46.79-.9,1.76-.93,2.83l-.14,4.75-5.29,3.91c-.73.54-.9,1.4-.94,2.42l-.19,4.29-.24,6.95-.13,8.1-.18,5.68c0,.1-.12.14-.16.13l-.14-8.08-.1-3.01-.18-9.86-.15-4.27c-.46.65-.85.91-1.65.81l-.07,6.15-.18,7.06c-.11.03-.28-.08-.28-.19l.09-9.58c0-.12-.17-.21-.25-.18l-.18,5.67-.16,6.07-.12,2.04-.07,14.89c0,.09-.12.15-.17.13l-.12-7.99ZM327.16,26.34l-.53-1.9c-1.02.42-1.92.07-2.95-.33-.62.96-.44,2.06-.36,3.21,1.36-.16,2.53-.46,3.84-.98ZM321.79,27.95c.04-1.24.19-2.19-.14-3.4l-1.06,3.9c.45.22,1.18-.06,1.19-.5ZM320.17,26.37l.47-1.42c-.49-.06-.91.31-1.21.35-.4-.33-.77-.13-1.18-.16-.67-.06-.83-.19-1.17.21-.3.35-.38.97.22,1,.16-.2.33-.66.58-.71.28-.06.78-.02.82.19-.17.34-.31.59,0,.88.42-.53.87-.59,1.48-.33ZM324.36,29.43c-.11-.35-.05-.57.07-.59.09-.02.39.02.58-.19-.27-.32-.76-.16-1.26-.16-.26-.03-.29.18-.13.25.06.03.21.09.28.25-.41.37-1.04.89-.71,1.66.46-.12,1.16-.66,1.18-1.21ZM325.57,36.79c-.37-.81.05-1.23.22-1.95.23-.95-.37-2.33-1.28-2.86-.06,1.69.03,3.13-.36,4.62l1.31,1.6c.34-.38.28-1.03.11-1.41ZM330.76,32.05c-.74.58-1.14.84-1.7.69.25-.29.2-.57.08-.63-.09-.05-.37.03-.43.15-.22.44-.3.91.04,1.39.42-.65.75-.57,1.32-.51.44.05,1.15-.71.69-1.1ZM322.09,35.39l-.04-3c-.38-.11-.99-.1-1.28.11-.21,1.05-.41,2.06-.4,3.2l1.72-.3Z"/>
  <path class="st0" d="M213.52,68.19l-.11-1.89-.13-7.32-.09-2.75-.11-10.22c-.4,0-1.24.07-1.49-.18l-.4-3.49c-.83,1.84-.12,3.91-.63,5.6l-.25-3.38c-.05-.68.32-1.42-.23-1.99-.61,2.51-.67,4.78-.88,7.19l-.22,2.49c-.63-1.2-.23-2.52-.43-3.87l-.94-6.43c-1.15.01-1.68.8-2.3,1.53-1.72,2.03-.05,3-.8,4.08-.17.25-.38.34-.69.19-.39-.19-.64-.52-.57-1.04l.43-3.43c.57-4.54,1.68-4.56,6.02-6.7.22-1.13-.05-2.26-.31-3.31-.92.25-1.73.9-2.55.9-1.61-.72.84-4.07-2.28-5.01l-2.41-.72c-.58-2.4,1.82-1.67,2.53-3.58.53-1.41,2.1-1.73,3.23-2.51l3.1-2.16c1.02-.72,1.88-1.42,2.81-2.23.51-.45,1.22-.75,1.07-1.62s-.02-1.95.72-2.69c1.87,1.66-.21,3.91,1.86,5.54.72.57,1.64,1.05,2.56.57.78-.41,1.24-1.2,1.38-2.19l1.92-1.65c.88,1.93.13,4.07-1.04,5.7l-1.32,1.82c-.21.28-.76.27-.84.49-.13.34-.18,1.05.18,1.33,1.03-.93,1.98-1.58,3.34-1.26-.08.73.42,1.16.62,1.76l1.19,3.69c-.46.79-.9,1.76-.93,2.83l-.14,4.75-5.29,3.91c-.73.54-.9,1.4-.94,2.42l-.19,4.29-.24,6.95-.13,8.1-.18,5.68c0,.1-.12.14-.16.13l-.14-8.08-.1-3.01-.18-9.86-.15-4.27c-.46.65-.85.91-1.65.81l-.07,6.15-.18,7.06c-.11.03-.28-.08-.28-.19l.09-9.58c0-.12-.17-.21-.25-.18l-.18,5.67-.16,6.07-.12,2.04-.07,14.89c0,.09-.12.15-.17.13l-.12-7.99ZM218.2,26.34l-.53-1.9c-1.02.42-1.92.07-2.95-.33-.62.96-.44,2.06-.36,3.21,1.36-.16,2.53-.46,3.84-.98ZM212.83,27.95c.04-1.24.19-2.19-.14-3.4l-1.06,3.9c.45.22,1.18-.06,1.19-.5ZM211.21,26.37l.47-1.42c-.49-.06-.91.31-1.2.35-.41-.33-.77-.13-1.18-.16-.67-.06-.83-.19-1.17.21-.31.36-.37.94.21,1,.17-.19.32-.68.59-.72.28-.05.76-.03.82.19-.18.35-.31.59,0,.88.42-.53.87-.59,1.48-.33ZM215.4,29.43c-.11-.35-.05-.57.07-.59.1-.01.4,0,.58-.19-.27-.33-.76-.16-1.26-.17-.28-.02-.27.2-.14.25.06.03.22.1.28.25-.41.37-1.04.89-.72,1.66.46-.12,1.16-.66,1.18-1.21ZM216.61,36.79c-.37-.81.05-1.23.22-1.95.23-.95-.37-2.33-1.28-2.86-.06,1.69.03,3.13-.36,4.62l1.31,1.6c.34-.38.28-1.03.11-1.41ZM221.79,32.05c-.69.56-1.18.87-1.67.68.18-.25.19-.57.07-.61s-.37.03-.43.15c-.22.44-.3.91.04,1.39.42-.64.75-.57,1.32-.51.43.05,1.15-.71.68-1.1ZM213.13,35.39l-.04-3c-.38-.11-.99-.1-1.28.11-.21,1.05-.41,2.06-.4,3.2l1.72-.3Z"/>
  <path class="st0" d="M133.78,38.86c-1.35,1.11-1.28,3.88-1.34,6.2-.03,1.2-.36,2.34-.2,3.57.12,1-.16,1.94-.19,2.9l-.18,6.69-.29-4.56c-.11-1.71-.14-3.33-.24-5.03l-.27-4.78-.32-2.84c-1.78.92-2.78,2.64-2.85,4.72l-1.4.07c0,.41,0,.87-.12,1.14s-.78.35-1.21.47l-.22,4.24-.26,5.48-.16,7.42c0,.07-.07.13-.14.13l-.26-3.85-.17-6.33-.15-6.82c-.01-.63-.32-1.26-.21-1.92.2-1.22-.31-2.25-.5-3.33-.56-3.03.97-5.28-.21-7.23-.92-1.52-1-3.24.03-4.76l-1.18-2.22c-.31-.58-1.86-.15-2.17-1.08-.12-.36.13-.75.5-1l3.45-2.26c1.14-1.1,2.2-2.07,3.52-2.97l1.43-2.13c1.54-1.01,3.04-1.8,4.37-3.1l1.81-1.05c.57-.33,1.21-.66,1.72-.35-.18.82-.92.98-1.31,1.5-.18.41.27,1.36.54,1.74.94.22,1.48.54,1.94,1.48.28.57,1.49,1.24,2.11,1.23l2.39-.07c.3.74-.28,1.29-.36,1.91l-.31,2.61-.28,2.65c-.11.99-.32,2.09-.18,3.1-.34.16-.68.35-.68.8v3.23c0,.62,1.21,1.12,1.57.8.5-.72.67-1.68,1.89-1.78.06,1,.33,2.4-.22,3.38-.45.8-.95,1.38-.95,2.4,0,.6-.48,1-1.06,1.09-2.26.36-1.91,3.29-3.92,4.74l-1.2-1.04-.13,4.94-.21,10.14c-.02,1.04-.11,1.96-.11,2.99l-.05,15.36c0,.09-.13.15-.17.13l-.17-11.17-.26-11.68-.16-8.51-.21-2.42c.26-1.9-.28-3.54-1.07-4.97ZM137.81,22.41c-1.01-.08-1.43-.13-1.53-.83l3.42-.02c.18,0,.44-.23.44-.5-2.91.26-5.21-.95-4.3,1.15-.35-.02-.72-.3-1.22-.08.12.62,1.13,1.69,1.79,1.25.52-.34.77-.89,1.4-.97ZM133.05,36.7c.78-1.75-.99-4.66-.12-7.34-.36-1.08-.87-2.47-.63-3.68.18-.9.08-1.37-.46-2.12-.4-.55-.73-2.09-1.72-1.9-.92.18-1.74,1.21-2.52,1.72,1.05.57,1.82,1.21,1.92,2.35.26,3.09-.19,6.16-.92,9.19l1.56,3.42c.96-.21,2.41-.59,2.89-1.66ZM140.23,28.73c.3-1.83.28-3.49-.18-5.32-.76,1.61-1.13,3.63.18,5.32ZM126.99,29.22c-1.27.62-1.49-1.42-2.88-1.45.04.74.79.83,1.16,1.18.32.31.39.82.7.92.4.13.92.26,1.03-.65ZM136.15,35.73c.57-.16.56-.55.83-.85.5.26.82.32,1.05.04.18-.21.59-.6.11-.86-.16.14-.53.5-.91.54-.21.03-.46-.03-.58-.39-.26.6-.51.83-.5,1.51ZM128.02,35.78c.06-.48-.09-.87-.29-1.4-1.11.48-1.92.28-2.91-.27-.14.52.33.54.36.7.02.12-.14.49-.07.58.24.3.74-.23.95-.33.55-.19,1.32.4,1.96.72ZM139.33,39.77c-.39-.48.19-.87.23-1.14.06-.36-.14-.82.04-.96l.64-.47c-.52-.16-.83-.08-1.21,0l-.8,1.77c.52.39.84.92,1.01,1.45.11.08.46-.21.39-.29l-.3-.37Z"/>
  <path class="st0" d="M451.08,61.51l-.34-2.57-.24-9.09-.25-3.13c-.09-1.13.33-2.26-.4-3.46-.35,1.35-1.29,2.41-2.5,2.94-.85-1.41-1.11-2.76-1.57-4.15l-.98-1.89-.52,5.83-.24,2.63-.13,7.68-.32-2.67-.11-5.45c-.02-.81-.14-1.6-.2-2.42l-.2-2.87-.21-3.6c-.06-.97-.33-1.58-.81-2.37-.74-1.23.08-2.69.41-3.89l-.51-3.48c-.1-.67.43-1.63-.19-2.15l-.9-.19c-.27-.06-.2-.66-.26-1.05l-.16-1.04c-.1-.62,2.32-.77,4.48-3.57l2.82-3.65,1.56-.35,1.79-2.29c.36-.46.4-.87.96-.91,1.67-.1.79,3.07,3.48,2.69,1.25-.17,2.29,1.99,3.94,1.5.73-.21,2.12-.69,2.63-.03.69.9-.54,1.66-1.01,2.18.74,3.07-1.07,5.61-.72,8.99.13,1.26,1.19,2.37,1.1,3.64-.08,1.16-1.65,1.9-2.09,2.84-.68,1.46-.33,3.23-.46,4.8l-.24,2.89-.24,6.7-.09,11.72-.2,2.3c0,.09-.12.14-.18.13l-.15-7.36-.28-14.31-.27-4.52c-2.21.79-2.97,3.52-4.93,2.68-.63.78-.4,1.76-.45,2.67l-.25,4.81-.21,3.81c-.06,1.14-.18,2.24-.21,3.35l-.15,5.7ZM453.65,33.94l-.45-2.6c-.22-1.26-.16-2.72-.01-3.97.1-.86-.09-1.19-.23-2.03l-.4-2.31c-1.19.12-2.15-.33-3.38-.88l-.42,6.12c-.08,1.22.57,2.85,1.26,4.03,1.19,2.04.1,5.44,1.85,5.98.62.19,1.61.16,1.83-.48.42-1.24.17-2.59-.05-3.86ZM454.6,37.21c.77-1.08.96-2.03-.02-2.72l.02,2.72ZM447.8,44.19c.54-.61.61-.96.73-1.42-.75-.24-.73-.99-.58-1.43.18-.52.91-.74,1.45-.38.15-.13.08-.4-.13-.58-.11-.1-.3.04-.5.05l-2.15.08c.19.41.46.42.75.64-.37.21-.81.62-.7.97.26.78.57,1.46,1.14,2.08Z"/>
  <path class="st0" d="M472.2,61.51l-.34-2.57-.24-9.09-.25-3.13c-.09-1.13.33-2.26-.4-3.46-.35,1.35-1.29,2.41-2.5,2.94-.85-1.41-1.11-2.76-1.57-4.15l-.98-1.89-.52,5.83-.24,2.63-.13,7.68-.32-2.67-.11-5.45c-.02-.81-.14-1.6-.2-2.42l-.2-2.87-.21-3.6c-.06-.97-.33-1.58-.81-2.37-.74-1.23.08-2.69.41-3.89l-.51-3.48c-.1-.67.43-1.63-.19-2.15l-.91-.2c-.25-.06-.19-.66-.26-1.05l-.16-1.05c-.1-.61,2.32-.77,4.48-3.57l2.82-3.65,1.56-.35,1.79-2.29c.36-.46.4-.87.96-.91,1.67-.1.79,3.07,3.48,2.69,1.25-.17,2.29,1.99,3.94,1.5.73-.22,2.12-.69,2.63-.03.7.9-.55,1.66-1,2.18.73,3.08-1.07,5.61-.72,8.99.13,1.26,1.19,2.37,1.1,3.64-.08,1.16-1.65,1.9-2.09,2.84-.68,1.46-.33,3.23-.46,4.8l-.24,2.89-.24,6.7-.09,11.72-.2,2.3c0,.09-.12.14-.18.13l-.15-7.36-.28-14.31-.27-4.52c-2.21.79-2.97,3.52-4.93,2.68-.63.78-.4,1.76-.45,2.67l-.25,4.81-.21,3.81c-.06,1.14-.18,2.24-.21,3.35l-.15,5.7ZM474.77,33.94l-.45-2.6c-.22-1.26-.16-2.72-.01-3.97.1-.86-.09-1.19-.23-2.03l-.4-2.31c-1.19.12-2.15-.33-3.38-.88l-.42,6.12c-.08,1.22.57,2.85,1.26,4.03,1.19,2.04.1,5.44,1.85,5.98.62.19,1.61.16,1.83-.48.42-1.24.17-2.59-.05-3.86ZM475.72,37.21c.77-1.08.96-2.03-.02-2.72l.02,2.72ZM468.92,44.19c.54-.61.61-.96.73-1.42-.75-.24-.73-.99-.58-1.43.18-.52.91-.74,1.45-.38.15-.13.08-.4-.13-.58-.11-.1-.3.04-.5.05l-2.15.08c.19.41.46.42.75.64-.37.21-.81.62-.7.97.26.78.57,1.46,1.14,2.08Z"/>
  <path class="st0" d="M180.87,50.34l-.43-5.06c-.78.82-1.3,2.51-1.83,2.02l-1.09-1.01c-1.23-.04-2.37-.26-3.5-.76l-.06,6.22c-.01,1.3-.45,2.66-.08,3.95s-.28,5.32-.33,8.01l-.08,4.77-.35,2.2-.21-14.98-.22-6-.11-3.96c-.06-2.19-2.4-.6-2.9-2.59.31-1.71.99-3.18,1.93-4.59-.02-1.8.27-3.54,1.13-5.11.23-1.11.03-2.21-.4-3.26-.5-.93-.32-1.95.49-2.7-.2-1.95.02-3.74.24-5.74.08-.75-1.91.84-3.57.49-.13-1.32-.14-2.57.51-3.75,2.7-.09,2.59-.72,3.3-1.69.64-.87.67-1.81.03-2.76,1.13-2.74,2.91-1.9,3.87-3.47l2.54-4.16c.21-.35,1.06-.23,1.41-.13.25,1.28-.11,2.43-.26,3.68l-.54,4.28c-.13,1.01-.08,2.27.51,3.14s1.95.46,2.75.4c.92.38,1.12,1.86.92,2.78-.52.07-1.07-.09-1.54.14l-2.02,1.02c.16.8.64,1.62.37,2.4-.26.73-1.07,1.72-.39,2.52.62.73,1.48,1.34,1.68,2.39.14.73-.83,1.21-1.05,1.68l-.11,5.43c.73.18,1.46.52,2.21.47,1.34-.09,2.39-1.3,2.99-2.37.25-.45.96-.24,1.09.04.5,1.12-1.75,2.13-1.59,4.95-1.06,1.06-2.66,1.81-3.51,3.16l-.3,1.41c-.16.76.13,1.55,0,2.16-.47,2.12-.31,4.13-.49,6.25-.11,1.27-.07,2.3.01,3.62.08,1.21-.18,2.56-.25,3.79l-.27,4.34-.18-4.29c-.04-.85-.09-1.56-.12-2.47l-.16-4.43c-.03-.88.09-1.49,0-2.45ZM178.41,15.94c-.58-.24-1.05-.12-1.52-.08l.46.94c.19.38.7.27.98.12.24-.14.4-.84.08-.98ZM185.17,38.8l-1.88.11c-.16-.24-.27-.7-.57-.8-.31.25-.63.43-.95.46-.26.02-.56-.2-.83-.5-.76,1.12-1.75-.45-2.95.13l1.36.49c-.42.22-.67.3-.81.49.6.44,1.09-.28,1.43-.3,1.06-.06,1.99.77,2.78.99l2.41-1.08Z"/>
  <path class="st0" d="M155.15,59.9c-.03-2.56-.25-4.94-.1-7.44l-.25-1.21-.02-4.73-1.75-.3c.33,1.03-.14,1.93-.13,2.87,0,1.5-.2,2.85-.22,4.31l-.13,7.41-.33,2.44c-.05-1.7-.24-3.17-.27-4.8l-.08-4.78c-.01-.73-.32-1.41-.2-2.18.17-1.12-.23-2.25-.2-3.31.07-2.4-1.21-5.1-3.44-5.78-.81-.25-1.51-1.19-1.05-2.07l1.54-2.97c.37-.72.33-.79.18-1.55l-.58-3.04c-.15-.79.08-1.48.89-1.7.12-.67-.4-1.11-.69-1.58-.66-1.09.01-2.07.59-2.99.16-.54-.36-1.56-.74-1.78-1.65.35-2.79,1.71-3.93,2.57-1.46-.47-1.59-2.64-.69-3.74.58-.71.82-1.99,1.73-2.33,4.68-1.74,5.7-4.18,6.68-4.11.55.04,1.21.7,2.06.41-.04,2.57,1.01,4.36,1.69,3.28l1.29-2.05c.62-.98,1.03-2.24,2.3-2.54.4.67.35,1.26.23,2.09,1.45,1.08,3.53,1.9,5.35,1.06.59-.27,1.17-1.06,1.95-1.09.12-.42.19-1.02.45-1.15.35-.18.94-.18,1.2.02,1.05.82-.86,2.59-1.95,3.91-.64.77-.62,4.81-.76,7.24l-.24,4.07c-.11,1.88-.1,3.63-.24,5.52l-.29,4.06-.17-7.69-.26-5.26c-.07-1.54-.28-2.94-.23-4.63-1.03,1.35-2.4,2.7-2.52,4.41l-.27,3.81-.21,3.16-.21,5.58-.15,6.23c0,.09-.1.14-.15.13l-.12-4.51-.24-4.39-2.94,3.01-1.38,1.56c.24,1.19-.11,2.24-.14,3.36l-.15,4.92-.19,8.65-.11,2.24-.09,7.06c0,.09-.12.14-.16.13l-.16-8.09-.02-1.72ZM160.49,37.89c.32-1.08-.09-1.89-.17-2.91-.11-1.63.25-3.35-.46-4.86-.17-.36-.88-.56-.5-1.44.26-.59.07-1.8-.76-1.79l-2.98.04.03,1.04c-.37.67-.75,2.03-.1,2.6,3.35,2.96-1,5.27,1.43,7.98,1.51-.61,2.03-2.48,3.03-1.71.26.2.12.65.46,1.04Z"/>
  <path class="st0" d="M433.87,46.49c-.51.4-.9.63-1.29.71-.66.14-.81-.49-1.17-.83-.94-.92-1.13-1.82-1.49-3.06l-.27,3.65-.13,9.99-.12,1.8-.13,10.01-.34-2.2-.18-12.31-.15-7.79c-.02-1.07-.38-2.25-.18-3.3.24-1.28-.41-1.77-.96-2.69-.46-.77-.84-2.35-.7-3.27l.57-3.8c.12-.77.26-1.55-.62-2.05l-.06,3.97c-.52-.84-.1-1.79-.24-2.7-.17-1.09-.25-2.05-.13-3.16-.6-1.15-.55-2.39.07-3.54-.76-1.36-.75-2.69-.24-4.1-.47-1.13-.24-2.25-.38-3.38l-.63-5.11c-.05-.43-.63-.8-.57-1.2.27-1.74,3.3-1.13,5.95-4.29l2.52-2.28c1.25-1.13,2.16-2.63,3.62-3.59.32-.21.38-1.19,1.12-.93,1.18.42.62-.9,1.58-1.04.33-.05.71.06.8.41.27,1-2.01,2.15-2.27,3.95-.37,2.49-1.57,2.57-2.53,4.52l.76.48c-.85,3.17-1.33,9.07.66,10.05.78.39,1.33.66,1.23,1.66l-1.06,2.46-.29,2.82-.25,4.06-.21,7.16c1.56.08,3.37-2.1,4.33-1.28.58.49-.35,1.23-.43,1.7-.11.64-.46,1.15-1,1.66l-2.82,2.7c-.26.25-.22.9-.09,1.32.15.58-.59.5-.37-.02.23-.43-.18-.63-.43-.24.17.88-.16,1.76-.18,2.61l-.16,6.11-.15,19.3c-.02.18-.31.19-.45-.12.18-.53.07-1.03.05-1.62l-.16-7.79-.26-9.04-.15-6.37ZM427.38,17.23c.41-.88.38-1.5-.33-2.41-.5.71-.25,1.56-.36,2.44-.2,1.66-.34,3.09-.17,4.85,1.32-1.47-.11-2.79.87-4.88ZM428,19.63c1.24-2,3.53-1.04,3.44-2.26-1.25-.39-2.22,1.43-3.16.17-.3.45-1,1.33-.28,2.09ZM432.93,30.09c-.08.18-.03.5.1.61.07.06.29.01.34-.12.03-.08.01-.14-.05-.35.33-.16.6-.19.92-.56-.55-.45-.97-1.22-.74-1.83.27-.06,1,.07,1.08-.23l.21-.86c.23-.93.8-1.73.43-2.68-.49.31-.42.68-.61,1.09-.7-.53-1.23-1.05-1.45-1.89.45-.16.91.12,1.14.11.3-.18.11-.73-.22-.61-.15.05-.35.16-.83.17.07-.35.46-.46.68-.91l-2.7-.27c.53.52.4,1.02.49,1.42.15.67-.66.89-.76,1.26-.15.57.54,1.28,1.06,1.34-.18.51-.32.92-.05,1.16l.83.75c-.19,1.48,1.2,2.12.33,2.14l-.19.24ZM428.06,28.74c.32-.92-.24-1.31-.89-1.47.3-.48.78-.51,1.16-.77-.17-.49-.06-1.03.19-1.11l1.15-.39c-.56-.6-1.65-.36-2.3.12.29.29.5.49.54.67.12.6-.99.64-1.16,1.01-.1.22-.11.68.11.88l1.2,1.08ZM432.93,29.7c-.06-.33-.37-.59-.61-.65-.28-.06-1.33.42-1.3.77.02.21.21.47.47.71-.18.24-1.06.31-1.15-.11-.06-.27.06-.8-.18-.92-.46-.23-1.35.48-2.47.04,0,.65.27.87.79.94.3.04.5-.11.61-.54.74.02,1.34.93,1.1,1.52-.82-.17-1.58-.48-2.18-.22-.33.15-.06.74.21.6.12-.06.39-.23.66-.22.34.01.14.39,0,.36-.81-.18-1.21,1.67-.84,3.28.26-.25.31-.53.68-.53-.17.52-.38,1.05-.31,1.48.04.27.56.54.77.9.11.2-.21.73.26.97.46-.53,1.22-.71,1.7-1.56-.63-.13-1.24-.04-1.56-.46-.24-.3-.63-.81-.38-1.29.13-.13.52.28.55.5.13-.4.27-.96.51-.98,1.48.4,1.92,2.37,3.19,1.42-.87-.52-1.39-.81-1.54-1.66-.48.29-1.33.26-1.62-.32,1.32-.5.63-1.66,1.42-2.12l.09,1.23c1.18-.78-.71-2.05,1-2.85.07-.03.16-.14.13-.29ZM435.5,36.64c.24-1.23.1-2.27-.29-3.36-.19,1.21-.24,2.25.29,3.36ZM434.24,40.13c-.38-.27-.96-.13-1.24-.09-.21.7.24.95.78.96.43,0,.87-.57.46-.87Z"/>
  <path class="st0" d="M106.37,43.05l-.11,3.9c-.04,1.29-.11,2.55-.25,3.83-.12,1.07-.03,1.84-.03,2.92l.02,4.47c0,1.07-.34,1.88,0,2.99l-.26,1.61c-.14.83.06,1.66-.32,2.41l-.15-6.95c-.02-1.14-.17-2.03,0-3.21l-.17-2.82-.12-3.51c-.04-1.33.21-2.58-.05-3.93l-.03-2.85c-.02-1.95-.73-3.76-2.24-4.99.17-1.37,0-2.53-.13-3.81.34-1.54,1.45-3.1.69-3.93-.85-.92-2.23-1.08-3.37-1.71.09-.42.41-1.18.77-1.5l1.63-1.45c.89-.79,2.04-1.03,2.94-1.93l2.26-2.29c.04-.5,0-1,.21-1.46,1.22-.7,2.85-1.12,3.68-2.27.48-.65.55-.85,1.35-1.21l1.9-2.27c.33-.4,1.15-.19,1.49-.06-.02.71-.82,1.25-.87,1.82-.13,1.49,1.21,2.65,2.27,3.47.39,1.11.84,2.06,1.95,2.59-.5,1.47.54,3.07.23,4.23-.23.84-2.87,2.07-3.14,3-.86,2.99-.87,6.1-.86,9.21l2.61-1.51c1.3,2.67-2.51,3.39-2.71,4.5l-.51,2.78c-.23-.69-.1-1.24-.11-1.9-.55-.12-.93,0-1.31.22s-.48.79-.5,1.32l-.23,6.22-.25,5.02-.17,9.67c-.15,0-.42-.23-.42-.45l-.02-10.07-.31-2.58c.14-1.48.16-2.87-.15-4.37-.17-.83.21-1.97-.17-2.66-.3-.47-1.02-.04-1.29.15-.72.51-.19,1.87-1.31,1.78s-.96-1.88-2.46-2.45ZM117.18,22.03c.43-.3.84-.54.9-1.16-.55,0-1.12-.24-1.16-.75l.34-.6s-.47-1.04-.98-1.08c-.26-.02-.5.16-.59.39s.07.58.31.7c.57.28.28.63.49,1.06l.69,1.43ZM111.5,31.25c.36-1.1-.11-2.03-.12-2.95-.03-2.41-.5-7.13-.66-7.18s-.38.06-.47.2c-.36.57.56,1.41.35,1.75l-.62,1c.38,2.63-.14,5.17.47,7.78.36.02.91-.2,1.04-.6ZM112.62,24.38l-.29,3.74c1.26-1.66,1.33-1.83.29-3.74ZM113.16,38c.19.25,1.22.16,1.22-.19l.04-4.01c0-.74-.38-1.36-.14-2.31-1.32-.11-1.03,1.64-1.32,3.96-.1.84-.39,1.78.19,2.55Z"/>
  <path class="st0" d="M267.06,44.17c-.34.75-.26,2.01-.34,2.8l-.52,5.3-.13,3.57-.31,3.83-.31-5.27-.27-5.29c-.05-.91.25-2.17-.42-2.93-.62-.69-.97-1.39-.53-2.31.57-1.19,0-2.44-.16-3.66l-.3-2.35c-.11-.87.06-1.68-.49-2.48.92-1.45.89-3.18.3-4.79-1.29-3.52,2.34-5.65,1.5-7.82-.32-.83-2.24,1.21-4.78.26.72-1.94,2.07-3.24,3.35-4.67.46-.51.89-1.06,1.68-1.27.15-1.25.2-2.78,0-4.1-.08-.55-.42-1.11-.19-1.71-1.18-1.75-.87-4.53,1.02-5.7.6-.37,1.35-.31,1.38-1.35,0-.18.33-.46.5-.53.34-.13.57,0,.84.32l1.78,2.18c1.6.99,2.4,4.1,1.1,6.13l-.84,1.32c-.35.56-.28,1.42-.45,2.14l2.39,1.07-.36.6c-.12.19.27.56.32.78-.46.73-.42,1.97-.47,2.84l-.27,5.02c-.62,3.31-.78,7.4,1.02,10.19.72-.41,1.35-.74,2.15-.56.28,3.21-2.97,3.81-3.47,5.57l-.22,3.89-.26,5.23-.26,8.62-.23,3.74-.22-6.39-.19-6.8-.2-3.59c-.07-1.23.13-2.37-.3-3.55-.84.44-2.34.6-2.86,1.72ZM268.34,8.65l-2.47.48c-.28-.16-.22-.8-.22-1.29-.61.62-.5,1.4-.11,2.22.92-.9,2.62-.02,2.79-1.41ZM268.48,14.23c-.57-.15-1.18-.17-1.68.05.19.69,1.82.94,1.98.68.12-.2,0-.65-.3-.73ZM265.14,20.46c.1.41.3.36.4.39.11.02.26-.43.15-.53l-1.73-.97c.26.65.59.83.25,1.55l.93-.44ZM271.82,25.63c.15-1.63.17-2.8.01-4.07-.49,1.49-.55,2.81-.01,4.07ZM270.88,37.15c.11-.45-.27-.72-.35-.87s.25-.4.31-.53c-.18-.52-.83-.26-1.31-.33l-2.53-.36c.44.67.65.91.93,1.71l.35-.9c.83.62,1.7,1.19,2.6,1.28ZM267.12,40.15l1.17-.97c-.28-.27-.4-.5-.47-.72s.19-.54.38-.53c.09.14.2.33.28.37.31.17.46-.46.54-1.41l-2.36.3c.58.52-.04.94-.25,1.2-.29.36-1.07.17-1.35.22-.19.09-.09.48.03.47,1-.15,1.23.57,1.69,1.72.1.26.51.2.55.05.03-.12-.14-.49-.21-.69Z"/>
  <path class="st0" d="M43.56,60.54l-.45-4c-.85.11-2.33-.3-2.5-1.15-.19-.94.42-3.16-.77-3.92-.2,1.14-.53,2.26-.46,3.36s-.39,1.93-.42,2.96l-.14,4.51c-.76-.38-.24-2.24-.57-4.89-.25-1.97-.13-3.98-.86-5.89l-1.06-1c.1-1.18,1.28-1.69,1.83-2.57.81-1.28,1.46-2.46,2.95-3.16l1.92.37c.72,1.53,1.6,2.77,2.73,3.97.34-1.79-.42-3.21.12-4.6-.54.08-1.27.11-1.51-.17-.11-.75-.48-1.16-1.3-1.12l-1.1-3.01-1.05-1.26c.57-1.68.44-3.94,1.61-5.39,3.46-4.34-.67-5.47-.3-7.68l.33-1.92c.07-.4-.02-1.59-.57-1.37l-2.7,1.08c-.64.25-1.28-.35-1.59-.8l4.68-3.52c1.27-.96,1.94-2.2,2.82-3.47.31-.44,1.02-.62.98-1.48-.02-.41,1.44-.42,1.46,0,.07,2.06.9,4.69,2.68,5.42-.33,1.15-.33,2.53-.96,3.61-.55.96-1.03,1.75-.36,2.87.47.8,1.17,1.51,2.13,2.01l-.82,4.2c-.24,1.23-.24,2.5-.09,3.71l2.52,1.15c.95-1.45,1.46-3.24,1.38-4.95l-1.07-2.71-.19-3.1c-.05-.83.15-1.06-.22-1.87s.36-2.3.56-3.2c.33-1.48-1.51-2.14-1.24-3.06.22-.76.82-.7,1.38-.92.66-.26,1.26-.75,2.03-.59,1.63.35,2.43-.67,3.3-1.78.52-.67,1.34-.98,1.65-1.95.2-.64,1.05-1.09,1.69-.63-1.59,3.31-.81,7.63-1.04,9.34l-.42,3.07-.45,7.42c.47,1.02.53,2.19-.07,3.31-.46.98-.88,2.28-.34,3.32.58,1.11,2.73.69,3.05,1.13.54.73-1.28,2.86-3.15,3.91-.81.45-.79,1.02-.87,1.84-.12,1.2-.29,2.36-.19,3.6s-.16,2.39-.19,3.59l-.18,5.85-.13,6.13c-.01.61-.13,1.22-.39,1.7l-.2-9.5-.22-5.74c-.05-1.29-.11-2.37-.14-3.82-.62.52-1.45.61-1.91,1.06-.68.67-.98,1.91-1.92,2.39-.5.25-1.09.39-1.36.72-.4.49-.36,1.05-.32,1.68.07,1.11-.12,2.09-.18,3.15l-.19,3.59c-.17-1.44-.26-2.7-.31-4.1l-.11-2.92c-.85.97-.55,2.21-.68,3.4l-.26,2.39c-.26,2.37-.16,4.74-.53,7.21-.15-.93-.23-1.89-.32-2.89l-.25-2.88c-.17-1.98.18-3.93-.46-5.81-.11-.33-.93-.22-.92.13.02.57-.38,1.02-.51,1.44l-.18,8.46.07,2.53c-.38-.48-.56-1.06-.42-1.72.16-.79-.32-1.65-.21-2.37.26-1.82.37-3.49-.04-5.31-.11-.49.2-2.4-.62-2.33-.18.02-.42.42-.39.66.2,1.25-.21,5.57-.39,8.14l-.2,2.91-.1,6.42c-.19-.02-.47-.21-.47-.47v-2.37c-.35-1.28-.18-2.39-.17-3.61l.03-2.92-.19-3.84ZM48.4,21.56c.13-.84-.29-1.08-.48-1.68.63-.63-.09-2.02-.77-1.81-.77.24-.08,1.16.14,1.51.47.72.47,1.54,1.11,1.97ZM45.46,22.66c-1.5-.37-1.85-1.67-2.62-1.82-.21-.04-.4.06-.34.35.13.56,1.13.57,1.29.89.12.23.14.55.15.9.48-.23.86-.06,1.52-.31ZM59.65,30.71c.55-1.76.41-3.44-.13-5.11-.6,1.87-.15,3.48.13,5.11ZM46.55,32.73c.81-.11,1.22-.4,1.66-1-.64-.31-1.28-.63-2.16-.57.18.41.49.47.98.5-.25.41-.43.67-.49,1.07ZM51.96,48.43l1.55-6.97c-.07-.77-.68-1.64-1.11-2.2l-.32,2.19c-.13.92.18,1.87-.16,2.78l.04,4.19ZM46.96,53.43c1.61-.59,2.27-1.74,3.21-2.61.74-.68.62-1,.58-2.09l-.21-5.29-.44-3.4-2.16.9c-.66.27-.75,1.24-.68,1.93.1,1.06-.16,1.93-.18,2.93l-.09,4.77c-.02.98-.32,2.01-.04,2.87Z"/>
</svg>