<?xml version="1.0" encoding="UTF-8"?>
<svg id="Layer_1" xmlns="http://www.w3.org/2000/svg" version="1.1" viewBox="0 0 2358 113">
  <!-- Generator: Adobe Illustrator 30.5.1, SVG Export Plug-In . SVG Version: 2.1.4 Build 3)  -->
  <path d="M1605.27,65.28c1.9,8.35,7.09,15.04,13.57,17.69,8.04,3.29,16.55,1.94,23.13-2.92.62-3.66.49-6.53,0-9.84l21.12.07c2.03,13.91-7.41,23.68-20.32,29.81-12.49-1.59-24.08-1.14-37.02-.83-11.82-1.41-21.41-12.31-20.85-24.96l1.53-34.47c-.83-12.14,5.52-25.69,18.45-28.76l26.2-1.27,31.74.55c-2.27,15.16-14.54,27.21-29.82,28.53l-27.92-.53c-.55,2.25-.6,4.99.05,7.44h54.8c1.1.01,1.85,1.3,1.96,1.85.13.63-.46,1.56-.91,2.25-4.4,6.76-10.46,10.64-17.54,13.62-4.98,2.1-9.14,1.89-14.63,1.87l-23.53-.08Z"/>
  <path d="M1953.8,99.87l-18.85.35-6.9-9.3c-5.53-4.91-12.87-6.35-20.73-4.51-5.93,1.39-11.06,6.08-15.92,13.16l.56-90.35,18.67.31c3.22,7.06,9.07,11.95,15.45,13.23,8.36,1.68,16.07-.21,21.39-6.27,2.27-2.58,3.1-5.95,7.27-7.91l-.93,91.28ZM1925.7,70.1c.69.09,1.9-.54,1.57-1.56l-9.64-30.03-1.78.31,9.85,31.28Z"/>
  <path d="M292.75,99.98l-22.57-.03-4.77-8.15-.35,8.72-42.1-.02-.31-11.94,10.38-51.64c1.87-9.32,9.79-16.81,16.72-20.03,9.8-4.56,20.2-3.76,28.48,1.84,7.25,4.9,13.67,12.74,14.08,21.66.34,7.48-1.73,15.56-4.69,22.2s-9.96,9.89-17.11,12.75c3.24,8.53,11.89,13.68,21.44,14.86,1.67,2.83,1.25,6.23.79,9.77ZM246.52,72.06c3.15,8.13,8.86,14.75,17.85,17.12-4.32-12.13-5.16-13.56-17.85-17.12Z"/>
  <path d="M420.39,99.94c-11.99.22-35.43,1.26-35.5-1.73l-.43-16.45c3.15.21,4.93.61,7.53.1-4.45-9.13-12.28-15.53-22.69-17.51l-.83-49,65.81.74-.25,47.63c-10.19,2.87-17.76,8.91-21.93,18.29l8.52.5c1.15,5.66.26,11.22-.24,17.44Z"/>
  <path d="M2219.91,68.61l42.08.93c1.76,12.7-5.74,26.9-19.19,30l-22.81.6c-7.2-5.76-13.84-13.38-13.81-23.12l.13-44.92c.03-10,7.51-18.22,14.85-24l23.5,1.63c10.36,2.19,17.45,13.08,18.88,23.42l-44.85,6.32,44.34,1.08-1.07,23.1-42.04,4.96Z"/>
  <path d="M685.93,99.77c-9.2-4.63-13.81-13.2-14.4-22.46l7.39-.17c10.89-10.98,11.53-27.7.89-38.88l-7.84-.12c.3-10.4,6.31-18.36,15.12-23.29l34.46-.37c8.5,4.15,14.26,11.74,15.46,21.48,11.13,11.37,11.77,29.17.35,40.64-1.12,10.45-7.03,17.63-16.81,22.69l-34.61.49ZM688.36,77.68l35.27-21.65-35-19.26-.9,1.13,8.6,5.07c-6.3,8.45-5.52,18.94.93,27.3-2.94,2.62-8.14,2.86-8.9,7.41Z"/>
  <path d="M1488.42,83.75c-5.79,12.28-17.03,19.06-30.31,14.49-10.79,3.36-22.38-2.15-26.43-12.88-7.56-8.71-8.31-20.68-1.37-30.02-6.98-9.31-4.37-18.71.1-27.76,5.54-11.22,15.78-18.79,28.57-14.41,12.86-3.96,23.07,3.42,28.29,14.74,4.25,9.22,6.53,19.02-.74,27.84,7.92,8.5,6.35,18.52,1.88,28ZM1458.2,82.96c8.78-6.14,11.53-16.87,7.48-26.79,3.92-9.68,1.71-20.23-6.73-26.51-7.86,6.51-10.07,17.05-5.42,26.24-5.13,9.37-2.68,19.88,4.67,27.07Z"/>
  <path d="M1280.2,62.56c8.51,11.16,8.31,24.73.38,37.08l-58.79-.43c-5.78-8.66-4.3-19.25,1.82-27.57,8.16-11.09,7.14-26.02-2.87-35.5-4.31-7.62-3.34-16.66.92-23.71h37.71c11.27,3.56,19.5,12.73,21.05,24.39l-20.1,19.51,19.88,6.23ZM1264.88,63.78l-19.4-.13-.03-14.73,13.55.14c1.81-7.43.69-15.02-5.29-20.7-.77,10.42-7.4,18.05-16.73,21.25l.04,12.64c9.97,3.02,15.87,11.31,16.64,21.97,7.79-4.34,12.28-11.8,11.23-20.45Z"/>
  <path d="M1342.4,63.81c-.6.86-.61,3.17-.24,4.57l12.85.12c.94,10.47-2.7,25.1-14,29.22-9.2,3.35-20.24-.02-30.01,1.82,1.59-13.47-4.46-24.07-15.78-29.69l.39-28.68c11.12-6.14,16.68-16.72,15.58-29.37l29.53,1.1c11.55,3.46,16.48,18.17,14.47,28.8-8.58,3.23-14.76-2.48-13.09,5.86l13.23-.36.19,16.08-13.11.53Z"/>
  <path d="M1753.79,81.67c-13.76-8.25-19.74-20.96-16.21-35.24,2.08-8.44,8.44-15.32,17.41-19.84,7.66-1.71,13.15-7.12,15.55-14.99,16.24-8.43,35.72-.99,42.26,16.76-15.47.03-27.26,11.61-27.59,26.1-.33,14.5,10.43,26.63,26.27,27.99-6.71,16.78-26.97,23.67-42.44,13.54-2.22-7.16-7.4-12.69-15.24-14.32Z"/>
  <path d="M75.95,99.89c-1.23-2.32-1.22-5.34-1.51-8.31,8.64-3.11,13.96-10.46,14.5-19.39-2.2.08-3.81.23-5.7-.22-.21-5.14.33-9.65,1.29-14.49,2.23-11.2-3.36-17.9-10.4-26.15,8.39-13.89,19.84-21.99,34.91-15.33l32.02,14.16c5.85,2.59,11.77,27.6-7.42,40.4-7.88,5.25-16.67,5.56-25.71,2.44.85,6.55,3.19,12.55,8.45,16.71l.04,9.37-40.47.82ZM110.13,60.15c4.72-7.11,4.34-22.59-2.16-28.37,1.4,5.8,4.76,10.65,3.93,16.29l-1.77,12.08Z"/>
  <path d="M2011.73,72.49l-18.33.22,11.41,28-40.48-.21.19-19.54c11.27-4.57,17.28-16.14,16.74-27.93.05-3.03-.02-5.72-.79-8.51l-15.65-36.14,63.21.22c8.98,12.41,8.98,30.01-1.66,41.8-7.37-3.3-14.52-4.04-21.91-1.69-.24,2.04.11,4.04.75,6.46l5.22.41c2.27,5.26,3.67,10.79,1.29,16.91Z"/>
  <path d="M2165.9,49.56c5.76,8.96,15.64,14.5,27.11,13.27,5.89,9.6,5.88,21.39-.91,31.19-9.82-5.05-20.54-2.24-27.61,7.52-5.55-9.49-16.15-13.63-26.47-9.39-6.64-9.38-6-20.95-.52-30.83,7.65,2.94,16.18,1.46,23.28-3.31,7.77,6.63,1.03,16.36,3.83,27.08l1.4-16.96c.42-5.05-1.72-8.38-4.67-11.44-6.57-6.81-14.34-11.31-24.23-10.39-5.06-9.85-5.66-20.79.39-30.81,10.08,5.13,21.49,2.51,27.87-8.09,5.32,10.32,16.82,15.74,27.71,10.19,5.74,10.16,5.1,21.73-1.38,31.62-14.5-7-21.89,5.66-24.95-.03l-.85.39ZM2166.12,48.41l-.13-23.91c-.18-.39-.52-.54-.81-.54l-.16,24.77,1.09-.33Z"/>
  <path d="M985.59,55.5c-3.08-1-4.94-.58-7.32-.79l.15-39.45c10.4-1.61,20.42,4.06,24.46,13.68l-.6,25.4c-4.03,12.28,3.55,24.84,15.58,28.83,12.11-5.41,18.36-18.21,13.45-30.54l.88-23.32c4.54-10.08,14.64-15.37,25.06-14.94l-.65,40.52-7.03.45c11.2,16.68-5.88,44.62-20.86,44.2l-25.52-.72c-13.97-.39-29.16-26.76-17.58-43.32Z"/>
  <path d="M1859.28,99.9c-15.47,3.07-32.49-7.43-34.59-23.08l-1.99-38.97c-.85-16.68,12.8-30.49,30.06-30.08,14.64.35,27.82,14.22,28.26,29.03l1.15,38.34c.36,12.07-10.35,22.26-22.9,24.75ZM1877.01,55.35l-15.25-11.14c-4.99-4.56-7.29-10.6-10.69-16.86-4.04,13.27-12.17,22.42-24.73,27.46,13.75,5.31,22.8,14.59,27.16,28.63,3.39-12.84,11.03-22.44,23.51-28.09Z"/>
  <path d="M620.54,70.84c-6.36-3.87-13.91-3.79-20.45-.65l-.35,29.57c-8.2-2.6-16.5-9.33-16.52-18.75l-.17-66,15.85.35,41.42,59.58.75-60.92c5.09,2.53,9.22,5.9,12.29,10.66l3.18,12.49c-11.52,11.29-11.5,28.44-.75,39.97v22.62s-15.23-.16-15.23-.16l-20.01-28.76Z"/>
  <path d="M856.5,99.53c-5.53-.02-11.55,1.21-17.01-.27-14.53-3.92-21.21-19.92-18.12-33.34,10.48,7.21,23.32,6.54,33.04-.78l-41.4-19.33.36-13.08c11.99,2.4,22.82-4.14,28.07-15.86l17.72-.06c13.05,4.85,20.82,18.79,18.08,32.45-10.55-6.17-22.57-7.22-32.91-.23l40.72,18.24-.22,15.92c-12.24-1.79-23.52,3.81-28.31,16.34Z"/>
  <path d="M1574.56,98.2l-32.15,1.06.93-43.29c.17-7.82,1.61-15.18.09-23.4l-5.92,67.56c-.46-.18-1.08-.22-1.56-.09l-2.92-51.55c-.02-.49-.34-.92-.91-.99l-.48,52.13-33.22-.41,30.89-44.72c1.73-14.32-15.29-27.17-29.47-25.37l.32-16.66,32.83-.29,4.31,63.27,5.69-63.25,33.03-.42-.2,18.99c-13.57-4.04-29.58,9.13-31.08,23.86l29.8,43.53Z"/>
  <path d="M2292.25,99.46c-.04-12.75-7.64-21.69-19.58-22.97-.57-3.6-.41-7.37,1.68-10.18,6.23-8.36,4.93-19.4-.82-27.75-1.29-1.88-.7-5.28-.53-7.55,12.18-.44,20.67-9.68,20.18-22.15,6.61.09,13.42-.73,19.85,1.19,12.73,3.82,19.9,15.9,20.68,28.87,7.14,10.13,7.25,22.69-.56,32.26-.55,13.35-9.48,25.52-22.69,28.09l-18.21.19ZM2309.61,75.09c8.11-4.47,11.14-13.23,11-21.36s-4.01-16.69-12.01-20.39c-4.35-2.02-9.7-.7-14.55-1.09l-.48,43.91c5.48.33,11.19,1.61,16.04-1.07Z"/>
  <path d="M950.08,98.18l-41.73.79c5.03-14.09-.9-28.36-14.95-33.55l.1-17.64c12.53-5.33,19.84-17.32,17.37-31.39l40.74-.96c-4.1,14.58,2.71,27.81,16.14,32.62l-.61,16.12c-13.78,5.23-20.92,18.48-17.06,34.01ZM950.07,62.98v-14.12c-10.43-10.31-26.86-10.19-38.01-.92l-.65,17.36c11.76,9.82,28.18,8.45,38.66-2.31Z"/>
  <path d="M1135.32,62.8c-8.27,12.98-4.56,26.72,7.32,36.13l-67.62.64-9.46-16.22c9.05-6.67,10.74-16.2,10.92-26.33s-.11-19.76-8.27-27.02c6.1-10.09,15.83-15.82,27.12-16.57l-.77,26.07c-4.2,7.43-4.58,15.82-1.93,23.82l-.28,26.84,5.53-26.29,37.44-1.06Z"/>
  <path d="M65.35,70.25c2.98,13.22-4.18,27.1-17.76,29.21-8.86,1.38-17.2-3.95-21.75-11.21-5.53-8.83-3.4-19.67,5.01-25.83,5.08,3.2,10.37,4.19,15.35,2.02l-16.68-7.19c-4.7-3.35-7.47-10.29-8.61-16.04-1.99-10.05,2.98-20.54,11.87-25.25,14.89-7.88,31.81,5.9,31.54,16.07-.23,8.61-3.85,16.28-11.01,20.85-4.51-3.17-9.75-4.44-15.14-1.96,12.28,5.51,23.59,3.43,27.17,19.34Z"/>
  <path d="M558.17,78.96l-36.76.39c1.69,5.59,4.93,8.55,9,11.27.62,3.07.46,5.97.25,9.4l-26.12-.07,26.26-83.24c5.17-1.83,10.49-2.13,16.04-.49l28,83.71-26.72-.23.16-8.61c4.55-2.72,7.58-6.93,9.9-12.1ZM558,69.26c-9.25-11.98-27-12.23-35.78-.24l35.78.24Z"/>
  <path d="M2063.66,88.3c-.13-12.14-8.14-21.58-18.76-26.34l-.33-18.83c13.6-5.25,20.43-18.14,18.2-32.47-.35-2.25,2.75-2.31,2.35-.06l-.1,39.37-.38,12.3c11.12,10.71,30.91,11,40.75-1.83l-.6-41.17c-.06-3.81-2.94-8.13,1-11.57-.47,17.76,1.36,28.63,18.67,36.88l.19,17.45c-6.74-.85-17.41,14.39-17.6,18.13l-1.01,19.45-30.97-.44-12.77-.07,1.38-10.8Z"/>
  <path d="M1415.87,61.26l1.41,21.88c-3.66,9.01-11.57,15.86-20.8,16.12-10.04.59-18.92-5.29-23.02-14.71-7.67-7.41-10.9-17.58-7.73-27.94.25-3.3-.58-6.83-1.13-9.91-1.42-8.01,3.33-13.81,6.8-20.11,4.93-8.94,11.81-15.06,22.27-14.98,9.08.08,18.59,6.07,21.3,16.4,1.72,6.52,1.1,14.59.4,22.04-5.45-11.72-16.63-18.23-27.59-12.09-7.96,4.46-11.57,15.4-8.74,23.79s9.99,12.77,17.5,13.16c8.49.44,14.8-4.65,19.33-13.65Z"/>
  <path d="M184.53,99.36c-2.59-7.33-6.46-12.39-13.27-14.62-5.76-7.08-6.85-16.02-2.94-25.31-5.99,2.35-8.57,7.3-11.95,12.61-2.36-17.7,17.06-33.18,33.73-29.29,13.61,3.18,24.14,14.71,23.25,28.82-4.53-4.29-5.93-9.55-11.73-11.71,3.87,9.08,3.45,18.74-2.95,25.72-6.53,2.42-10.82,6.9-14.13,13.76Z"/>
  <path d="M320.74,96.57l-7.02-1.09c-5.84-7.76-5.34-17.37-.33-25.52-3.9-9.12-5.35-19.36.82-28.13.02,12.99,6.42,23.1,18.26,26.97,11.97-3.27,17.93-14.05,18.83-27.62,6.05,8.3,5.42,18.67,1.35,27.87,6.35,8.22,6.47,18.6.13,26.64-2.31-.07-5.61-.69-7.46.52-7.68,5-16.29,5.63-24.58.37Z"/>
  <path d="M332.56,57.86c-4.07-13.38-13.74-20.82-26.83-21.35,13.28-1.36,22.53-8.4,26.18-20.97,4.61,13.32,13.7,19.17,26.76,20.41-13.3,1.77-22.58,8.22-26.11,21.91Z"/>
  <path d="M197.49,43.23c-9.72-4.34-17.29-4.63-27.11,1,7.71-9.69,7.68-19.53.16-30.13,8.9,5.96,17.46,6.92,27.51.72-6.17,8.86-7.15,17.74-.55,28.41Z"/>
</svg>